<svg id="color" height="512" viewBox="0 0 64 64" width="512" xmlns="http://www.w3.org/2000/svg">
<path d="m28 52h4v6h-4z" fill="#b9d5ee"/>
<path d="m38.983 16.179-1.966-.358 2-11a.994.994 0 0 1 .709-.782l7-2 .548 1.922-6.4 1.83z" fill="#e6e6e6"/>
<path d="m18 16h24l-1.46 27.015a10.556 10.556 0 0 1 -10.54 9.985 10.556 10.556 0 0 1 -10.54-9.985z" fill="#d8e6f1"/>
<path d="m22.094 16 .128 4 1.232 22.8a6.556 6.556 0 0 0 13.092 0l1.232-22.8.222-4z" fill="#ef5e99"/>
<path d="m28 57-11 4h26l-11-4z" fill="#d8e6f1"/><g fill="#b9d5ee">
<path d="m33 45a1 1 0 0 1 -1-1v-21h-4v21a1 1 0 0 1 -2 0v-22a1 1 0 0 1 1-1h6a1 1 0 0 1 1 1v22a1 1 0 0 1 -1 1z"/>
<path d="m37 21a1 1 0 0 0 -1 1v22a1 1 0 0 0 2 0v-21h3.622l.108-2z"/>
<path d="m22 44a1 1 0 0 0 2 0v-22a1 1 0 0 0 -1-1h-4.73l.108 2h3.622z"/></g>
<path d="m39.646 16a3.993 3.993 0 1 0 -5.69-5.568 3.854 3.854 0 0 0 .044-.432 4 4 0 0 0 -8 0 3.854 3.854 0 0 0 .044.432 3.992 3.992 0 1 0 -5.69 5.568" fill="#ff7bac"/>
<circle cx="30" cy="6" fill="#de0000" r="3"/></svg>